<svg width="30" height="30" viewBox="0 0 30 30" fill="none" xmlns="http://www.w3.org/2000/svg">
<g clip-path="url(#clip0_101_39)">
<path d="M23.715 1.07391L15 9.78938C12.0952 6.88547 9.18937 3.97875 6.28406 1.07391C2.92312 -2.28703 -2.28656 2.92453 1.07156 6.28641C3.97734 9.18938 6.88406 12.0966 9.78656 15.0014C6.88273 17.9076 3.97773 20.8126 1.07156 23.7164C-2.28656 27.0764 2.92359 32.2866 6.28406 28.9289C9.18891 26.0231 12.0947 23.1169 14.9995 20.213L23.7145 28.9289C27.0755 32.2889 32.2866 27.0769 28.927 23.7164C26.0212 20.8106 23.1164 17.9058 20.2097 15.0005C23.1159 12.0947 26.0208 9.18891 28.927 6.28359C32.287 2.92453 27.0759 -2.28703 23.7145 1.07578" fill="#9C3131"/>
</g>
<defs>
<clipPath id="clip0_101_39">
<rect width="30" height="30" fill="white"/>
</clipPath>
</defs>
</svg>
